<svg width="338" height="474" viewBox="0 0 638 774" fill="none" xmlns="http://www.w3.org/2000/svg">
            <path d="M282.48 29.9504C241.792 74.8825 275.012 142.274 317.56 188.73L312.055 238.584L346.769 203.135C395.539 230.999 490.101 232.646 527.234 191.64C570.533 143.825 550.708 90.9322 499.917 44.9383C449.126 -1.05572 325.807 -17.8953 282.48 29.9504Z" fill="white" stroke="#F2662B" stroke-width="1.54" stroke-miterlimit="10"/>
            <path d="M20.9795 116.9C23.0612 119.856 23.7257 122.777 23.0595 125.639C22.3772 128.528 20.7563 130.824 18.1919 132.596C15.6275 134.368 12.8968 135.053 9.94042 134.689C6.984 134.325 4.50021 132.668 2.41848 129.712C0.429793 126.847 -0.250671 123.954 0.436434 120.995C1.12354 118.035 2.71713 115.723 5.17878 114C7.66771 112.293 10.3984 111.608 13.4094 112.004C16.4204 112.4 18.9363 114.004 20.925 116.868L20.9795 116.9ZM41.1353 63.9291C42.285 63.1109 44.218 62.4647 46.9229 61.9473C49.6278 61.4299 52.7498 61.4529 56.3 62.0595C59.8501 62.6662 63.6084 64.165 67.5588 66.5832C71.5365 69.0176 75.345 72.6693 79.0115 77.5544C82.8622 83.0614 85.6487 88.5589 87.3822 94.0902C89.1157 99.6215 89.4562 104.765 88.4149 109.565C87.3736 114.364 84.7405 118.365 80.5477 121.513C77.789 123.426 74.9424 124.555 72.0626 124.932C69.1556 125.292 66.244 125.101 63.3391 124.402C60.407 123.686 57.3964 122.668 54.2639 121.358C51.1476 120.02 47.7375 118.618 44.0819 117.07C41.8979 116.213 39.8547 115.989 37.9636 116.44C36.0725 116.892 34.3193 117.608 32.7634 118.551C31.2075 119.494 30.4078 119.971 30.3581 119.869L21.3384 106.974C21.1957 106.779 21.5506 106.368 22.4306 105.756C24.4282 104.379 27.172 103.299 30.7759 102.51C34.3365 101.732 38.2193 101.84 42.4032 102.933C44.329 103.417 47.2257 104.441 51.0931 106.005C54.9605 107.569 58.1333 108.5 60.6275 108.773C63.1056 109.073 65.6854 108.518 68.3507 107.135C71.482 104.967 73.6152 102.243 74.7069 98.9749C75.7987 95.7064 75.4941 92.3044 73.8092 88.7419C72.8376 86.7742 71.7584 84.9257 70.5717 83.1963C66.8637 77.8839 62.302 75.0662 56.9138 74.7595C53.9637 74.5091 51.0196 74.9943 48.0221 76.2531C45.7006 77.1811 44.3214 77.8266 43.8895 78.1192C43.7546 78.2222 43.6791 78.2872 43.7449 78.3628L41.2059 63.9345L41.1353 63.9291Z" fill="#6F2348"/>
            <path d="M341.458 105.744L334.546 123.504H348.274L347.218 129.456H332.242L324.178 150H317.746L325.81 129.456H304.498L296.434 150H290.002L298.066 129.456H282.802L283.858 123.504H300.37L307.282 105.744H292.21L293.362 99.792H309.586L317.746 78.96H324.178L316.018 99.792H337.33L345.49 78.96H351.922L343.762 99.792H357.778L356.626 105.744H341.458ZM335.026 105.744H313.714L306.802 123.504H328.114L335.026 105.744ZM359.844 133.68L360.708 128.592L404.004 81.552H411.972L403.812 127.824H414.084L413.028 133.68H402.756L399.876 150H393.252L396.132 133.68H359.844ZM404.292 88.944L368.676 127.824H397.476L404.292 88.944ZM424.959 115.44C426.879 104.496 430.047 95.984 434.463 89.904C438.943 83.824 445.567 80.784 454.335 80.784C460.991 80.784 465.759 82.608 468.639 86.256C471.583 89.904 473.055 95.024 473.055 101.616C473.055 105.392 472.575 110 471.615 115.44C469.695 126.384 466.495 134.928 462.015 141.072C457.535 147.152 450.911 150.192 442.143 150.192C435.487 150.192 430.719 148.4 427.839 144.816C424.959 141.168 423.519 136.048 423.519 129.456C423.519 125.68 423.999 121.008 424.959 115.44ZM464.991 115.44C465.951 110.128 466.431 105.712 466.431 102.192C466.431 97.328 465.407 93.584 463.359 90.96C461.375 88.272 458.015 86.928 453.279 86.928C448.671 86.928 444.927 88.176 442.047 90.672C439.167 93.104 436.959 96.368 435.423 100.464C433.887 104.56 432.607 109.552 431.583 115.44C430.559 121.264 430.047 125.776 430.047 128.976C430.047 133.776 431.039 137.488 433.023 140.112C435.007 142.736 438.399 144.048 443.199 144.048C447.807 144.048 451.551 142.832 454.431 140.4C457.311 137.904 459.519 134.608 461.055 130.512C462.591 126.416 463.903 121.392 464.991 115.44ZM477.875 133.68L478.739 128.592L522.035 81.552H530.003L521.843 127.824H532.115L531.059 133.68H520.787L517.907 150H511.283L514.163 133.68H477.875ZM522.323 88.944L486.707 127.824H515.507L522.323 88.944Z" fill="#F2662B"/>
            <path d="M252.979 536.515C252.979 536.515 314.983 432.988 523.476 491.31C523.476 491.31 483.42 651.838 252.979 536.515Z" fill="#361939"/>
            <path d="M385.761 338.394C385.761 338.394 333.523 383.623 289.119 384.895C289.119 384.895 275.334 508.051 275.055 520.631C274.775 533.186 402.724 661.383 505.902 504.282C505.902 504.282 475.867 417.569 469.356 363.529C469.356 363.529 415.822 347.18 398.833 355.991L397.536 338.394L383.167 355.991L385.786 338.394H385.761Z" fill="url(#paint0_linear_0_1)"/>
            <path d="M469.331 363.529C469.331 363.529 445.806 356.358 424.978 354.082C442.144 385.532 486.6 476.699 468.695 548.483C481.284 537.249 493.746 522.76 505.903 504.282C505.903 504.282 475.867 417.569 469.357 363.529H469.331Z" fill="url(#paint1_linear_0_1)"/>
            <path d="M331.361 367.47C331.361 367.47 344.408 419.821 292.527 457.413C246.342 490.87 331.361 367.47 331.361 367.47Z" fill="#BA695A"/>
            <path d="M291.916 367.47C291.916 367.47 257.1 415.488 247.817 418.841C238.534 422.194 247.817 489.181 247.817 489.181C247.817 489.181 320.909 463.507 331.362 367.47C331.362 367.47 310.482 357.411 291.916 367.47Z" fill="url(#paint2_linear_0_1)"/>
            <path d="M362.109 443.487C362.109 443.487 382.48 413.163 378.233 394.954C373.986 376.721 383.472 405.943 383.472 405.943C383.472 405.943 383.777 397.157 383.472 390.867C383.141 384.577 387.388 417.569 411.88 429.194L423.35 484.8L373.121 489.499L362.134 443.487H362.109Z" fill="url(#paint3_linear_0_1)"/>
            <path d="M364.831 476.87C364.831 476.87 405.827 456.532 430.802 473.175C430.802 473.175 452.419 530.494 445.451 548.972C438.482 567.475 369.434 596.624 345.909 550.759C345.909 550.759 343.035 512.603 364.805 476.846L364.831 476.87Z" fill="#893643"/>
            <path d="M318.467 482.084C318.467 482.084 356.005 464.486 368.721 477.066C381.437 489.646 374.774 463.287 374.774 463.287C374.774 463.287 352.521 440.575 318.467 460.791C296.062 474.08 318.467 482.108 318.467 482.108V482.084Z" fill="#BA695A"/>
            <path d="M318.442 476.846C318.442 476.846 355.98 459.249 368.696 471.829C381.412 484.384 374.749 458.025 374.749 458.025C374.749 458.025 352.496 435.337 318.442 455.529C296.037 468.818 318.442 476.821 318.442 476.821V476.846Z" fill="#EEDEE9" stroke="#6F2348" stroke-width="1.54" stroke-miterlimit="10"/>
            <path d="M352.089 447.55C346.265 450.805 342.501 455.945 342.501 461.745C342.501 464.095 343.137 466.346 344.256 468.402C353.717 466.591 363.381 466.567 368.722 471.829C381.438 484.384 374.774 458.025 374.774 458.025C374.774 458.025 366.407 449.508 352.089 447.55Z" fill="url(#paint4_linear_0_1)"/>
            <path d="M351.606 466.028L331.845 458.441L333.371 454.158L353.132 461.745L351.606 466.028Z" fill="white"/>
            <path d="M418.9 473.958C418.9 473.958 456.437 456.361 469.153 468.941C481.869 481.496 475.206 455.162 475.206 455.162C475.206 455.162 452.979 432.449 418.9 452.665C396.494 465.955 418.9 473.982 418.9 473.982V473.958Z" fill="#BA695A"/>
            <path d="M418.849 468.72C418.849 468.72 456.387 451.123 469.103 463.703C481.819 476.259 475.156 449.9 475.156 449.9C475.156 449.9 452.902 427.187 418.849 447.403C396.443 460.693 418.849 468.72 418.849 468.72Z" fill="#EEDEE9" stroke="#6F2348" stroke-width="1.54" stroke-miterlimit="10"/>
            <path d="M452.495 439.425C446.671 442.68 442.907 447.795 442.907 453.595C442.907 455.945 443.543 458.197 444.662 460.252C454.123 458.441 463.787 458.417 469.128 463.679C481.844 476.234 475.181 449.875 475.181 449.875C475.181 449.875 466.813 441.358 452.495 439.425Z" fill="url(#paint5_linear_0_1)"/>
            <path d="M452.037 457.878L432.251 450.316L433.777 446.033L453.563 453.62L452.037 457.878Z" fill="white"/>
            <path d="M364.22 468.451C364.22 468.451 406.005 447.721 431.463 464.682C431.463 464.682 453.512 523.127 446.417 541.973C439.296 560.818 382.506 589.086 345.934 550.759C345.934 550.759 342.018 504.894 364.22 468.451Z" fill="url(#paint6_linear_0_1)"/>
            <path d="M390.466 484.8C390.466 484.8 370.731 471.437 373.35 458.001C375.97 444.564 415.797 447.697 419.052 450.854C422.307 453.987 425.588 465.318 410.558 484.8C410.558 484.8 401.911 495.373 390.466 484.8Z" fill="url(#paint7_linear_0_1)"/>
            <path d="M287.517 426.111C280.523 440.355 267.527 432.303 267.527 432.303C267.527 432.303 293.646 391.797 273.631 410.202C264.755 418.377 255.192 419.943 247.283 419.184C238.916 424.96 247.817 489.206 247.817 489.206C247.817 489.206 252.293 487.639 259.134 483.821C293.442 457.585 293.544 413.824 287.517 426.111Z" fill="url(#paint8_linear_0_1)"/>
            <path d="M442.602 353.348C442.602 353.348 429.555 405.699 481.437 443.292C527.621 476.748 442.602 353.348 442.602 353.348Z" fill="#BA695A"/>
            <path d="M482.047 353.348C482.047 353.348 516.863 401.367 526.146 404.72C535.429 408.073 526.146 475.059 526.146 475.059C526.146 475.059 453.054 449.386 442.602 353.348C442.602 353.348 463.481 343.289 482.047 353.348Z" fill="url(#paint9_linear_0_1)"/>
            <path d="M486.422 411.989C493.415 426.233 506.411 418.181 506.411 418.181C506.411 418.181 480.292 377.651 500.307 396.08C509.183 404.255 518.771 405.821 526.655 405.063C535.022 410.839 526.121 475.084 526.121 475.084C526.121 475.084 521.645 473.518 514.804 469.7C480.496 443.463 480.394 399.703 486.422 411.989Z" fill="url(#paint10_linear_0_1)"/>
            <path d="M402.088 489.426V508.247" stroke="#6F2348" stroke-width="1.54" stroke-linecap="round" stroke-linejoin="round"/>
            <path d="M390.465 540.92C390.465 540.92 402.062 466.787 414.473 540.92" stroke="#6F2348" stroke-width="1.54" stroke-linecap="round" stroke-linejoin="round"/>
            <path d="M449.316 411.426C448.985 412.919 448.527 414.265 447.993 415.562C447.459 416.859 446.899 418.107 446.264 419.282C444.992 421.656 443.517 423.834 441.915 425.89C438.685 429.953 434.921 433.526 430.597 436.586L429.3 437.516C427.291 438.911 424.494 438.495 423.044 436.586C422.866 436.365 422.713 436.096 422.612 435.851C421.569 433.698 420.679 431.446 419.992 429.047C419.356 426.624 418.797 424.153 418.771 421.338C421.442 422.439 423.629 423.859 425.714 425.352C427.749 426.869 429.58 428.509 431.259 430.247L423.248 429.512C426.401 425.352 430.114 421.73 434.336 418.597C436.472 417.055 438.736 415.635 441.177 414.412C442.398 413.775 443.695 413.237 445.043 412.723C446.391 412.209 447.79 411.768 449.341 411.45L449.316 411.426Z" fill="#BA695A"/>
            <path d="M324.876 413.115C326.377 413.58 327.725 414.143 329.022 414.779C330.294 415.415 331.565 416.076 332.71 416.81C335.024 418.254 337.135 419.894 339.093 421.632C342.984 425.132 346.316 429.096 349.012 433.526H340.975C342.832 431.935 344.815 430.467 347.002 429.145C349.215 427.848 351.529 426.649 354.301 425.792C353.971 428.582 353.182 431.005 352.292 433.331C351.377 435.656 350.258 437.809 349.012 439.865C347.765 441.921 345.019 442.606 342.882 441.383C342.628 441.236 342.399 441.089 342.196 440.893L340.975 439.841C336.982 436.414 333.6 432.498 330.802 428.142C329.403 425.939 328.183 423.639 327.14 421.167C326.606 419.943 326.199 418.621 325.792 417.3C325.411 415.954 325.08 414.559 324.902 413.066L324.876 413.115Z" fill="#BA695A"/>
            <path d="M449.494 407.657C449.163 409.15 448.705 410.496 448.171 411.793C447.637 413.09 447.078 414.338 446.442 415.513C445.17 417.887 443.695 420.065 442.093 422.121C438.863 426.184 435.099 429.757 430.776 432.817L429.479 433.722C427.469 435.117 424.672 434.701 423.222 432.792C423.044 432.572 422.892 432.303 422.79 432.058C421.747 429.904 420.857 427.652 420.17 425.254C419.535 422.831 418.975 420.359 418.95 417.545C421.62 418.646 423.807 420.065 425.893 421.558C427.927 423.076 429.758 424.716 431.462 426.453L423.451 425.719C426.605 421.558 430.318 417.936 434.54 414.803C436.676 413.262 438.939 411.842 441.381 410.594C442.602 409.957 443.899 409.419 445.247 408.905C446.594 408.391 447.993 407.951 449.545 407.632L449.494 407.657Z" fill="#6F2348"/>
            <path d="M325.08 409.346C326.58 409.811 327.928 410.374 329.225 411.01C330.497 411.646 331.768 412.307 332.913 413.041C335.227 414.51 337.338 416.125 339.296 417.863C343.187 421.363 346.493 425.327 349.215 429.757H341.153C343.009 428.166 344.993 426.698 347.18 425.376C349.393 424.079 351.707 422.88 354.479 422.023C354.149 424.813 353.36 427.212 352.47 429.561C351.554 431.887 350.435 434.04 349.189 436.096C347.943 438.152 345.196 438.837 343.06 437.614C342.806 437.467 342.577 437.32 342.373 437.124L341.153 436.072C337.16 432.645 333.777 428.729 330.98 424.373C329.581 422.195 328.36 419.87 327.318 417.398C326.784 416.174 326.377 414.852 325.97 413.531C325.563 412.209 325.258 410.79 325.08 409.297V409.346Z" fill="#6F2348"/>
            <g style="mix-blend-mode:multiply">
            <path d="M383.141 355.991L384.082 349.579L369.84 350.68C350.97 364.19 318.34 384.063 289.093 384.896C289.093 384.896 286.804 405.43 284.058 430.589C342.45 437.173 434.285 449.239 493.39 465.465C484.336 435.558 472.993 394.269 469.305 363.529C469.305 363.529 415.771 347.18 398.782 355.991L398.223 348.478L388.635 349.212L383.116 355.991H383.141Z" fill="#BA695A"/>
            </g>
            <path d="M567.652 381.004C550.79 365.977 477.113 357.851 389.423 362.501C301.733 367.127 229.429 383.011 214.374 399.727L211.093 399.898L211.474 406.433C212.568 425.425 294.002 436.561 393.365 431.299C492.728 426.037 572.407 406.359 571.314 387.367L570.958 380.833L567.677 381.004H567.652Z" fill="#91325D"/>
            <path d="M570.932 380.833C572.026 399.825 492.347 419.502 392.958 424.765C293.595 430.027 212.161 418.891 211.067 399.898C209.974 380.906 289.653 361.229 389.041 355.967C488.43 350.705 569.864 361.841 570.932 380.833Z" fill="url(#paint11_linear_0_1)"/>
            <path d="M381.513 285.138C284.235 201.827 277.419 397.842 277.419 397.842L497.458 379.585C439.143 173.632 381.513 285.138 381.513 285.138Z" fill="url(#paint12_linear_0_1)"/>
            <path d="M309.541 690.802C301.962 688.109 261.652 690.288 245.935 672.47C245.935 672.47 245.477 676.484 241.103 680.473C236.728 684.438 236.855 671.54 236.855 671.54C236.855 671.54 234.211 671.76 229.15 675.872C224.089 679.984 227.09 665.128 227.09 665.128L217.629 655.925C170.223 594.03 268.519 574.597 268.519 574.597L293.747 596.012C293.747 596.012 305.878 600.246 267.781 611.211C230.472 621.93 265.136 637.814 266.586 638.475C271.901 640.8 278.488 643.762 285.38 647.041C304.378 656.072 326.148 663.708 329.556 670.855" fill="url(#paint13_linear_0_1)"/>
            <path d="M259.288 599.585L256.363 615.738C259.033 614.148 262.721 612.606 267.756 611.162C305.854 600.222 293.723 595.963 293.723 595.963L268.494 574.548C268.494 574.548 262.645 575.723 254.532 578.341L259.288 599.585Z" fill="#361939"/>
            <path d="M309.541 690.802L329.531 670.781C326.123 663.635 304.353 655.974 285.355 646.968C278.463 643.688 271.876 640.751 266.561 638.402C265.9 638.108 258.27 634.608 253.794 629.885L246.062 672.593C261.856 690.263 301.988 688.134 309.541 690.802Z" fill="#361939"/>
            <path d="M543.898 579.369C543.898 579.369 612.514 612.263 509.718 671.344C509.718 671.344 499.112 743.299 554.631 704.948C610.149 666.572 634.335 571.489 543.898 579.369Z" fill="url(#paint14_linear_0_1)"/>
            <path d="M554.631 704.948C600.256 673.425 624.722 603.599 581.767 584.068C591.94 610.892 600.307 667.159 509.794 695.819C512.464 712.266 522.383 727.244 554.631 704.948Z" fill="url(#paint15_linear_0_1)"/>
            <path d="M238.839 755.806L267.094 599.561L252.954 536.49C252.954 536.49 302.852 568.331 359.464 562.164V540.015C359.464 540.015 520.704 533.26 523.451 491.286L515.007 577.338L550.281 716.328C550.281 716.328 459.183 813.272 238.839 755.781V755.806Z" fill="url(#paint16_linear_0_1)"/>
            <path d="M252.979 536.515C256.972 538.815 261.118 540.847 265.314 542.805C269.485 544.763 273.758 546.525 278.056 548.213L284.566 550.587L291.153 552.741C293.315 553.5 295.578 554.063 297.791 554.724C300.004 555.384 302.242 555.972 304.48 556.461C306.743 556.951 308.956 557.587 311.219 557.979L318.035 559.227C320.298 559.643 322.613 559.839 324.902 560.133C327.19 560.426 329.479 560.72 331.768 560.793L338.66 561.234H345.553H349.011L352.445 560.989L359.311 560.475L357.76 562.164L357.658 540.015V538.326L359.438 538.228C366.839 537.836 374.291 537.298 381.717 536.662C389.143 536.074 396.569 535.413 403.97 534.63C418.772 533.064 433.548 531.057 448.171 528.389C455.496 527.092 462.769 525.624 469.992 523.91C473.578 522.98 477.189 522.124 480.724 521.047C484.31 520.068 487.795 518.869 491.279 517.669L496.467 515.711L501.553 513.533C503.206 512.75 504.834 511.893 506.487 511.061C508.089 510.18 509.615 509.177 511.192 508.247C512.667 507.194 514.117 506.093 515.541 504.943C516.762 503.621 518.262 502.52 519.254 501.027C521.67 498.286 522.916 494.835 523.527 491.286C523.145 494.835 522.102 498.457 519.788 501.394C518.847 502.985 517.372 504.159 516.177 505.579C514.778 506.803 513.354 508.002 511.879 509.152C510.327 510.18 508.801 511.282 507.225 512.236C505.597 513.142 503.969 514.096 502.316 514.953L497.255 517.376L492.067 519.505C488.557 520.827 485.048 522.124 481.462 523.225C477.901 524.4 474.29 525.379 470.704 526.407C463.456 528.316 456.157 530.004 448.832 531.497C434.133 534.312 419.306 536.466 404.428 538.179C389.55 539.917 374.647 541.165 359.642 541.801L361.422 540.015L361.32 562.164V563.73L359.769 563.828L352.699 564.293L349.164 564.513H345.629L338.559 564.416L331.539 563.804C329.2 563.657 326.86 563.314 324.546 562.947C322.231 562.555 319.891 562.311 317.603 561.821L310.736 560.377C308.447 559.912 306.209 559.227 303.946 558.664C301.682 558.101 299.444 557.44 297.206 556.706C294.993 555.996 292.73 555.384 290.568 554.528C286.168 553.01 281.87 551.224 277.598 549.413C273.351 547.528 269.154 545.57 265.06 543.416C260.94 541.287 256.947 538.962 253.081 536.466L252.979 536.515Z" fill="#D15E96"/>
            <path d="M361.448 562.188L359.49 616.791L357.531 562.188H361.448Z" fill="#D15E96"/>
            <path d="M326.138 583.679L312.142 587.921L334.547 656.39L348.544 652.148L326.138 583.679Z" fill="#85C7FF"/>
            <path d="M298.63 523.127C278.488 529.246 267.298 549.902 273.656 569.286C280.014 588.67 301.479 599.439 321.621 593.32C341.763 587.201 352.954 566.545 346.596 547.161C340.237 527.777 318.773 517.009 298.63 523.127ZM318.925 585.121C303.488 589.796 287.033 581.548 282.176 566.692C277.318 551.836 285.889 536.001 301.326 531.326C316.764 526.652 333.218 534.875 338.076 549.755C342.933 564.611 334.363 580.446 318.925 585.121Z" fill="#85C7FF"/>
            <path opacity="0.5" d="M338.076 549.755C342.933 564.611 334.363 580.446 318.925 585.121C303.488 589.796 287.033 581.548 282.176 566.692C277.318 551.836 285.889 536.001 301.326 531.326C316.764 526.652 333.218 534.875 338.076 549.755Z" fill="#77B6F1"/>
            <path opacity="0.5" d="M287.339 540.504C283.346 545.252 281.032 551.199 280.854 557.416L310.966 586.394C313.611 586.32 316.281 585.929 318.926 585.121C321.851 584.24 324.546 582.943 326.937 581.328L328.361 579.957L287.339 540.504Z" fill="#77B6F1"/>
            <path opacity="0.5" d="M290.289 537.494L331.667 577.314C332.938 575.992 334.057 574.548 335.049 573.006L294.765 534.239C293.162 535.193 291.662 536.295 290.289 537.494Z" fill="#77B6F1"/>
            <path d="M483.802 596.673L451.3 588.303C451.3 588.303 440.924 580.911 452.521 617.525C463.863 653.356 430.954 634.364 429.581 633.556C424.622 630.57 418.416 626.948 411.778 623.228C393.467 612.973 374.8 599.781 366.713 600.98C351.682 603.232 309.007 597.383 309.312 619.214C309.617 641.045 353.92 623.497 360.456 628.074C366.967 632.675 387.414 666.18 411.499 668.921C411.499 668.921 408.269 671.516 407.251 677.218C406.26 682.921 417.348 675.676 417.348 675.676C417.348 675.676 418.62 677.928 417.882 684.242C417.145 690.557 428.335 679.959 428.335 679.959L441.534 682.456C521.34 686.225 483.777 596.673 483.777 596.673H483.802Z" fill="url(#paint17_linear_0_1)"/>
            <path d="M370.832 613.927C365.746 605.606 335.914 602.351 321.723 612.728C314.703 617.843 314.729 624.133 316.56 629.175C329.48 633.629 355.573 624.647 360.456 628.073C366.967 632.675 387.414 666.18 411.498 668.921C411.498 668.921 408.268 671.516 407.251 677.218C406.259 682.921 417.348 675.676 417.348 675.676C417.348 675.676 418.619 677.928 417.882 684.242C417.144 690.557 428.334 679.959 428.334 679.959L441.534 682.456C441.534 682.456 389.474 644.496 370.832 613.927Z" fill="url(#paint18_linear_0_1)"/>
            <path d="M326.58 609.302C326.58 609.302 319.51 607.172 309.897 615.812" stroke="#6F2348" stroke-width="1.54" stroke-linecap="round" stroke-linejoin="round"/>
            <path d="M329.479 617.598C329.479 617.598 322.409 615.469 312.796 624.084" stroke="#6F2348" stroke-width="1.54" stroke-linecap="round" stroke-linejoin="round"/>
            <path d="M397.435 664.002L400.842 665.568L404.327 666.866C405.522 667.208 406.717 667.502 407.913 667.82L411.575 668.358L412.821 668.53L411.88 669.386C411.295 669.925 410.812 670.732 410.303 671.393L409.159 673.718C408.904 674.55 408.726 675.383 408.498 676.215L408.218 677.341C408.192 677.781 408.218 678.344 408.294 678.271C408.294 678.344 408.37 678.344 408.574 678.393C408.879 678.393 409.21 678.393 409.617 678.271C410.405 678.075 411.219 677.757 412.007 677.365C413.609 676.606 415.186 675.652 416.661 674.673L417.831 673.89L418.442 675.089C418.772 675.75 418.848 676.215 419.001 676.729C419.154 677.243 419.23 677.757 419.255 678.246C419.357 679.225 419.51 680.253 419.408 681.208L419.306 684.12V684.756C419.306 684.952 419.306 685.001 419.306 685.05C419.484 685.197 419.001 684.707 418.95 684.805C418.976 684.805 419.332 684.732 419.662 684.561C419.993 684.414 420.374 684.218 420.73 683.973C421.468 683.508 422.205 682.97 422.918 682.407C424.342 681.257 425.791 680.033 427.114 678.785L427.75 678.197L428.64 678.344L441.865 680.743H441.61C444.153 680.694 446.671 680.791 449.214 680.694C451.707 680.424 454.275 680.473 456.717 679.984L460.43 679.396L464.041 678.466C465.262 678.197 466.407 677.781 467.551 677.341C468.67 676.876 469.916 676.582 470.959 675.97L474.189 674.306L477.19 672.274C479.072 670.757 480.852 669.166 482.353 667.306C483.853 665.47 485.201 663.464 486.269 661.334C486.879 660.306 487.312 659.181 487.744 658.055C488.227 656.953 488.609 655.803 488.914 654.653C489.652 652.352 490.058 649.978 490.465 647.58C490.872 645.181 491.05 642.758 491.177 640.335C491.279 637.888 491.254 635.44 491.152 632.993C490.999 630.545 490.796 628.098 490.491 625.651C489.27 615.861 487.007 606.144 483.828 596.697C485.938 601.25 487.642 605.973 489.117 610.746C490.593 615.543 491.864 620.413 492.678 625.357C493.11 627.829 493.416 630.325 493.695 632.822C493.924 635.342 494.051 637.839 494.077 640.384C494.077 642.905 493.975 645.45 493.67 647.996C493.594 649.268 493.339 650.517 493.085 651.789C492.881 653.062 492.551 654.31 492.195 655.534C491.89 656.782 491.483 658.006 490.999 659.229C490.542 660.453 490.084 661.652 489.448 662.803C488.329 665.152 486.879 667.404 485.226 669.46C483.599 671.565 481.615 673.4 479.555 675.089L476.249 677.414L472.688 679.323C471.518 680.008 470.196 680.351 468.975 680.865C467.729 681.379 466.457 681.819 465.16 682.089L461.269 683.043L457.327 683.631C454.708 684.12 452.037 684.047 449.418 684.267C446.773 684.316 444.153 684.193 441.508 684.169H441.407L441.254 684.144L428.055 681.55L429.555 681.11C428.08 682.456 426.631 683.704 425.003 684.879C424.189 685.466 423.35 686.029 422.434 686.543C421.977 686.812 421.493 687.057 420.959 687.277C420.4 687.497 419.815 687.718 418.874 687.693C418.391 687.669 417.755 687.497 417.272 687.032C416.788 686.592 416.636 686.078 416.534 685.711C416.432 685.319 416.458 684.879 416.458 684.609L416.534 683.851L416.763 681.183C416.89 680.278 416.763 679.421 416.763 678.564C416.763 678.124 416.712 677.683 416.61 677.316C416.534 676.925 416.432 676.459 416.356 676.264L418.136 676.68C416.483 677.683 414.83 678.589 413.024 679.347C412.134 679.739 411.193 680.057 410.151 680.302C409.642 680.4 409.032 680.449 408.396 680.4C408.04 680.302 407.658 680.204 407.328 680.008C407.022 679.715 406.616 679.445 406.539 679.029C406.209 678.099 406.387 677.757 406.412 677.292C406.539 676.582 406.692 676.313 406.844 675.799C407.15 674.893 407.404 673.988 407.76 673.107L409.21 670.635C409.845 669.9 410.38 669.117 411.193 668.481L411.524 669.509L407.785 668.701C406.59 668.285 405.369 667.893 404.2 667.477L400.792 665.862L397.562 663.978L397.435 664.002Z" fill="#D15E96"/>
            <path d="M452.521 617.525C452.521 617.525 453.105 618.798 453.919 621.074C454.631 623.399 455.903 626.703 455.954 631.059C455.954 633.189 455.649 635.832 453.69 638.108C452.699 639.209 451.325 640.017 449.85 640.458C448.375 640.898 446.875 640.972 445.4 640.898C439.499 640.507 434.082 638.108 428.919 635.367C424.037 632.479 419.179 629.64 414.677 626.85C410.151 624.084 406.031 621.392 402.495 619.042C398.96 616.717 396.087 614.637 394.052 613.242C392.043 611.822 390.898 610.966 390.898 610.966C390.898 610.966 392.195 611.529 394.434 612.606C396.646 613.731 399.876 615.2 403.64 617.182C411.168 621.074 421.163 626.483 430.878 632.112C435.583 634.731 440.822 637.031 445.603 637.594C447.994 637.814 450.181 637.472 451.529 636.175C452.877 634.877 453.512 632.846 453.69 630.913C454.046 627.021 453.538 623.57 453.156 621.221C452.724 618.847 452.495 617.501 452.495 617.501L452.521 617.525Z" fill="#D15E96"/>
            <path d="M360.456 628.074C366.967 632.675 387.414 666.18 411.498 668.921C411.498 668.921 408.269 671.516 407.251 677.218C406.259 682.921 417.348 675.676 417.348 675.676C417.348 675.676 418.619 677.928 417.882 684.242C417.144 690.557 428.334 679.959 428.334 679.959L441.534 682.456C521.34 686.225 483.777 596.673 483.777 596.673L451.274 588.303C451.274 588.303 440.898 580.911 452.495 617.525C463.838 653.356 430.929 634.363 429.555 633.556C424.596 630.57 418.39 626.948 411.753 623.228C393.442 612.973 374.774 599.781 366.687 600.98" fill="url(#paint19_linear_0_1)"/>
            <path d="M592.906 345.345C595.551 346.495 597.204 348.184 597.916 350.362C598.628 352.565 598.45 354.743 597.408 356.945C596.365 359.148 594.763 360.69 592.576 361.62C590.388 362.55 587.998 362.428 585.353 361.277C582.81 360.152 581.157 358.487 580.419 356.236C579.682 353.984 579.834 351.806 580.826 349.677C581.843 347.547 583.445 346.005 585.683 345.075C587.922 344.145 590.312 344.219 592.855 345.345H592.906ZM585.124 301.927C585.582 300.923 586.65 299.724 588.303 298.305C589.956 296.885 592.118 295.661 594.814 294.658C597.509 293.655 600.714 293.165 604.427 293.214C608.165 293.263 612.286 294.193 616.812 296.004C621.721 298.158 625.892 300.728 629.35 303.738C632.809 306.748 635.149 310.052 636.395 313.675C637.641 317.297 637.463 321.017 635.861 324.786C634.742 327.16 633.242 329.045 631.41 330.44C629.554 331.835 627.469 332.863 625.18 333.548C622.865 334.233 620.373 334.747 617.677 335.114C614.981 335.457 612.057 335.873 608.903 336.289C607.047 336.583 605.546 337.244 604.427 338.296C603.308 339.348 602.392 340.523 601.706 341.771C601.019 343.02 600.663 343.656 600.587 343.607L589.091 338.565C588.913 338.492 588.99 338.076 589.346 337.317C590.16 335.604 591.609 333.793 593.771 331.835C595.907 329.901 598.628 328.433 601.96 327.503C603.486 327.062 605.902 326.597 609.208 326.108C612.514 325.618 615.083 324.982 616.914 324.174C618.745 323.391 620.297 321.996 621.568 320.014C622.84 317.321 623.196 314.654 622.611 312.035C622.026 309.416 620.424 307.262 617.804 305.549C616.329 304.619 614.829 303.811 613.303 303.126C608.572 301.046 604.274 300.972 600.434 302.906C598.298 303.909 596.467 305.402 594.915 307.434C593.695 308.976 593.008 309.955 592.83 310.322C592.779 310.444 592.754 310.517 592.83 310.542L585.175 301.902L585.124 301.927Z" fill="#6F2348"/>
            <path d="M169.329 281.189C166.46 280.918 164.369 279.826 163.022 277.976C161.668 276.103 161.167 273.976 161.482 271.557C161.796 269.138 162.846 267.173 164.64 265.609C166.434 264.044 168.745 263.417 171.614 263.688C174.379 263.968 176.463 265.036 177.856 266.948C179.25 268.86 179.774 270.979 179.485 273.312C179.172 275.654 178.123 277.618 176.28 279.199C174.438 280.779 172.142 281.453 169.377 281.174L169.329 281.189ZM190.076 320.059C189.949 321.155 189.302 322.628 188.166 324.492C187.03 326.356 185.351 328.192 183.096 329.985C180.84 331.778 177.943 333.24 174.397 334.349C170.827 335.465 166.623 335.862 161.761 335.548C156.431 335.026 151.675 333.88 147.46 332.093C143.245 330.306 140.005 327.891 137.706 324.834C135.408 321.777 134.433 318.184 134.799 314.101C135.133 311.496 135.981 309.237 137.293 307.34C138.63 305.436 140.297 303.81 142.263 302.446C144.253 301.075 146.466 299.811 148.917 298.623C151.375 297.459 154.028 296.153 156.9 294.777C158.575 293.92 159.799 292.825 160.539 291.476C161.28 290.127 161.79 288.725 162.059 287.325C162.328 285.924 162.471 285.208 162.559 285.231L175.041 286.45C175.232 286.464 175.288 286.884 175.182 287.716C174.935 289.599 174.113 291.772 172.659 294.306C171.222 296.809 169.086 299.052 166.203 300.973C164.887 301.867 162.733 303.06 159.739 304.554C156.745 306.048 154.498 307.452 153.005 308.79C151.504 310.104 150.458 311.913 149.858 314.194C149.476 317.15 149.958 319.798 151.319 322.106C152.68 324.415 154.866 325.965 157.884 326.779C159.572 327.205 161.248 327.506 162.909 327.683C168.047 328.19 172.157 326.923 175.215 323.89C176.938 322.271 178.221 320.282 179.072 317.867C179.759 316.021 180.111 314.877 180.167 314.472C180.178 314.34 180.18 314.262 180.099 314.263L190.035 320.098L190.076 320.059Z" fill="#6F2348"/>
            <defs>
            <linearGradient id="paint0_linear_0_1" x1="390.466" y1="581.792" x2="390.466" y2="338.394" gradientUnits="userSpaceOnUse">
            <stop stop-color="#C7572A"/>
            <stop offset="1" stop-color="#FFDA7A"/>
            </linearGradient>
            <linearGradient id="paint1_linear_0_1" x1="465.44" y1="548.483" x2="465.44" y2="354.082" gradientUnits="userSpaceOnUse">
            <stop stop-color="#C23B1A"/>
            <stop offset="1" stop-color="#E0AF69"/>
            </linearGradient>
            <linearGradient id="paint2_linear_0_1" x1="243.697" y1="426.11" x2="331.362" y2="426.11" gradientUnits="userSpaceOnUse">
            <stop stop-color="#C7572A"/>
            <stop offset="1" stop-color="#FFDA7A"/>
            </linearGradient>
            <linearGradient id="paint3_linear_0_1" x1="392.729" y1="489.499" x2="392.729" y2="388.958" gradientUnits="userSpaceOnUse">
            <stop stop-color="#F8BF7E"/>
            <stop offset="1" stop-color="#FFE2BA"/>
            </linearGradient>
            <linearGradient id="paint4_linear_0_1" x1="342.501" y1="461.378" x2="376.504" y2="461.378" gradientUnits="userSpaceOnUse">
            <stop stop-color="#7D2A4D"/>
            <stop offset="1" stop-color="#2C1736"/>
            </linearGradient>
            <linearGradient id="paint5_linear_0_1" x1="442.907" y1="453.253" x2="476.91" y2="453.253" gradientUnits="userSpaceOnUse">
            <stop stop-color="#7D2A4D"/>
            <stop offset="1" stop-color="#2C1736"/>
            </linearGradient>
            <linearGradient id="paint6_linear_0_1" x1="396.722" y1="569.824" x2="396.722" y2="458.025" gradientUnits="userSpaceOnUse">
            <stop stop-color="#E47947"/>
            <stop offset="1" stop-color="#FFD8A1"/>
            </linearGradient>
            <linearGradient id="paint7_linear_0_1" x1="397.46" y1="489.499" x2="397.46" y2="448.137" gradientUnits="userSpaceOnUse">
            <stop stop-color="#2C1736"/>
            <stop offset="1" stop-color="#7D2A4D"/>
            </linearGradient>
            <linearGradient id="paint8_linear_0_1" x1="243.697" y1="447.281" x2="290.543" y2="447.281" gradientUnits="userSpaceOnUse">
            <stop stop-color="#E47947"/>
            <stop offset="1" stop-color="#FFD8A1"/>
            </linearGradient>
            <linearGradient id="paint9_linear_0_1" x1="530.266" y1="411.964" x2="442.602" y2="411.964" gradientUnits="userSpaceOnUse">
            <stop stop-color="#C7572A"/>
            <stop offset="1" stop-color="#FFDA7A"/>
            </linearGradient>
            <linearGradient id="paint10_linear_0_1" x1="530.241" y1="433.159" x2="483.421" y2="433.159" gradientUnits="userSpaceOnUse">
            <stop stop-color="#CC6C40"/>
            <stop offset="1" stop-color="#D9B889"/>
            </linearGradient>
            <linearGradient id="paint11_linear_0_1" x1="392.993" y1="424.751" x2="389.349" y2="355.944" gradientUnits="userSpaceOnUse">
            <stop stop-color="#2C1736"/>
            <stop offset="1" stop-color="#7D2A4D"/>
            </linearGradient>
            <linearGradient id="paint12_linear_0_1" x1="387.63" y1="391.994" x2="380.484" y2="257.069" gradientUnits="userSpaceOnUse">
            <stop stop-color="#2C1736"/>
            <stop offset="1" stop-color="#7D2A4D"/>
            </linearGradient>
            <linearGradient id="paint13_linear_0_1" x1="326.209" y1="629.878" x2="205.805" y2="639.637" gradientUnits="userSpaceOnUse">
            <stop stop-color="#B03B6C"/>
            <stop offset="1" stop-color="#3C1F4A"/>
            </linearGradient>
            <linearGradient id="paint14_linear_0_1" x1="499.657" y1="656.53" x2="607.833" y2="629.19" gradientUnits="userSpaceOnUse">
            <stop stop-color="#E47947"/>
            <stop offset="1" stop-color="#FFD8A1"/>
            </linearGradient>
            <linearGradient id="paint15_linear_0_1" x1="501.305" y1="662.945" x2="609.431" y2="635.618" gradientUnits="userSpaceOnUse">
            <stop stop-color="#BA2509"/>
            <stop offset="0.15" stop-color="#C23A1A"/>
            <stop offset="0.46" stop-color="#D67246"/>
            <stop offset="0.9" stop-color="#F7CA8D"/>
            <stop offset="1" stop-color="#FFDF9E"/>
            </linearGradient>
            <linearGradient id="paint16_linear_0_1" x1="394.56" y1="774.039" x2="394.56" y2="491.31" gradientUnits="userSpaceOnUse">
            <stop stop-color="#2C1736"/>
            <stop offset="1" stop-color="#7D2A4D"/>
            </linearGradient>
            <linearGradient id="paint17_linear_0_1" x1="376.517" y1="574.985" x2="440.575" y2="694.479" gradientUnits="userSpaceOnUse">
            <stop stop-color="#FFD363"/>
            <stop offset="0.14" stop-color="#FCCD5F"/>
            <stop offset="0.31" stop-color="#F5BC56"/>
            <stop offset="0.51" stop-color="#E9A146"/>
            <stop offset="0.73" stop-color="#D87C30"/>
            <stop offset="0.95" stop-color="#C34C15"/>
            <stop offset="1" stop-color="#BF420F"/>
            </linearGradient>
            <linearGradient id="paint18_linear_0_1" x1="333.604" y1="603.144" x2="414.579" y2="704.063" gradientUnits="userSpaceOnUse">
            <stop stop-color="#FFD680"/>
            <stop offset="0.37" stop-color="#E2A066"/>
            <stop offset="0.79" stop-color="#C5694B"/>
            <stop offset="1" stop-color="#BA5441"/>
            </linearGradient>
            <linearGradient id="paint19_linear_0_1" x1="403.926" y1="580.995" x2="459.362" y2="684.407" gradientUnits="userSpaceOnUse">
            <stop stop-color="#7D2A4D"/>
            <stop offset="1" stop-color="#2C1736"/>
            </linearGradient>
            </defs>
            </svg>