<svg width="35" height="35" viewBox="0 0 35 35" fill="none" xmlns="http://www.w3.org/2000/svg">
<path d="M27.5633 26.4032C29.0353 28.7208 29.729 29.9513 29.729 31.2348C29.729 33.7695 27.8464 34.9986 25.3102 34.9986C24.1922 34.9986 23.4706 34.9971 21.6467 34.0483C21.6467 34.0483 20.465 32.9669 17.6995 33.078C14.9082 32.9676 13.7257 34.0619 13.7257 34.0619C11.9018 35.01 11.206 35 10.0895 35C7.55323 35 5.66918 33.7724 5.66918 31.2362C5.66918 29.9527 6.36504 28.7237 7.8363 26.4046C7.8363 26.4046 10.6176 21.7859 13.0277 19.613C14.7691 18.045 17.3082 18.0507 17.3082 18.0507H18.0915C18.0915 18.0507 20.7416 18.0436 22.3741 19.613C24.7096 21.8647 27.5633 26.4032 27.5633 26.4032ZM11.5034 14.962C14.155 14.962 16.3042 11.6124 16.3042 7.48101C16.3042 3.34958 14.155 0 11.5034 0C8.85178 0 6.70258 3.34958 6.70258 7.48101C6.70258 11.6124 8.85178 14.962 11.5034 14.962ZM6.90252 22.2073C8.8568 21.305 9.30255 18.1059 7.89722 15.0616C6.49189 12.0173 3.76865 10.2802 1.81437 11.1817C-0.139902 12.0833 -0.584936 15.2831 0.819681 18.3274C2.22501 21.3716 4.94824 23.1081 6.90252 22.2073ZM22.6651 14.962C25.3166 14.962 27.4666 11.6124 27.4666 7.48101C27.4666 3.34958 25.3166 0 22.6651 0C20.0135 0 17.8643 3.34958 17.8643 7.48101C17.8643 11.6124 20.0135 14.962 22.6651 14.962ZM32.3548 11.181C30.3998 10.2788 27.6772 12.0159 26.2719 15.0609C24.8666 18.1059 25.3123 21.305 27.2673 22.2073C29.2223 23.1088 31.9448 21.3716 33.3502 18.3274C34.7555 15.2831 34.3098 12.0833 32.3548 11.181Z" fill="#030104"/>
</svg>
